<mxfile host="app.diagrams.net" modified="2024-01-17T18:56:46.766Z" agent="Mozilla/5.0 (Windows NT 10.0; Win64; x64) AppleWebKit/537.36 (KHTML, like Gecko) Chrome/119.0.0.0 Safari/537.36 OPR/105.0.0.0" etag="Ifwv5I4N0aBQl3tAUKQZ" version="22.1.21" type="github">
  <diagram name="Page-1" id="WEaogWOMoJxRNa3tFYCO">
    <mxGraphModel dx="2146" dy="603" grid="1" gridSize="10" guides="1" tooltips="1" connect="1" arrows="1" fold="1" page="1" pageScale="1" pageWidth="1169" pageHeight="827" math="0" shadow="0">
      <root>
        <mxCell id="0" />
        <mxCell id="1" parent="0" />
        <mxCell id="Kcy05sSw5dRX6cnOLowN-1" value="&lt;b style=&quot;font-weight:normal;&quot; id=&quot;docs-internal-guid-42f4c1cf-7fff-ffef-cff0-2908b1d1533a&quot;&gt;&lt;p dir=&quot;ltr&quot; style=&quot;line-height:1.38;margin-left: 36pt;margin-top:0pt;margin-bottom:0pt;&quot;&gt;&lt;span style=&quot;font-size: 12pt; font-family: Consolas, sans-serif; color: rgb(0, 0, 0); background-color: transparent; font-weight: 700; font-style: normal; font-variant: normal; text-decoration: none; vertical-align: baseline;&quot;&gt;&amp;lt;conditional&amp;gt;&lt;/span&gt;&lt;span style=&quot;font-size: 12pt; font-family: Consolas, sans-serif; color: rgb(0, 0, 0); background-color: transparent; font-weight: 400; font-style: normal; font-variant: normal; text-decoration: none; vertical-align: baseline;&quot;&gt; :== &amp;lt;initial&amp;gt; { &amp;lt;medial&amp;gt; } [ &amp;lt;final&amp;gt; ]&lt;/span&gt;&lt;/p&gt;&lt;p dir=&quot;ltr&quot; style=&quot;line-height:1.38;margin-left: 36pt;margin-top:0pt;margin-bottom:0pt;&quot;&gt;&lt;span style=&quot;font-size: 12pt; font-family: Consolas, sans-serif; color: rgb(0, 0, 0); background-color: transparent; font-weight: 700; font-style: normal; font-variant: normal; text-decoration: none; vertical-align: baseline;&quot;&gt;&amp;lt;initial&amp;gt;&lt;/span&gt;&lt;span style=&quot;font-size: 12pt; font-family: Consolas, sans-serif; color: rgb(0, 0, 0); background-color: transparent; font-weight: 400; font-style: normal; font-variant: normal; text-decoration: none; vertical-align: baseline;&quot;&gt; :== &amp;lt;predicate-cond&amp;gt; [ &lt;/span&gt;&lt;span style=&quot;font-size: 12pt; font-family: Consolas, sans-serif; color: rgb(0, 0, 0); background-color: transparent; font-weight: 400; font-style: italic; font-variant: normal; text-decoration: none; vertical-align: baseline;&quot;&gt;RESERVED_THEN &lt;/span&gt;&lt;span style=&quot;font-size: 12pt; font-family: Consolas, sans-serif; color: rgb(0, 0, 0); background-color: transparent; font-weight: 400; font-style: normal; font-variant: normal; text-decoration: none; vertical-align: baseline;&quot;&gt;] &lt;/span&gt;&lt;span style=&quot;font-size: 12pt; font-family: Consolas, sans-serif; color: rgb(0, 0, 0); background-color: transparent; font-weight: 400; font-style: italic; font-variant: normal; text-decoration: none; vertical-align: baseline;&quot;&gt;SENTENCE_BREAK&lt;/span&gt;&lt;span style=&quot;font-size: 12pt; font-family: Consolas, sans-serif; color: rgb(0, 0, 0); background-color: transparent; font-weight: 400; font-style: normal; font-variant: normal; text-decoration: none; vertical-align: baseline;&quot;&gt; &lt;/span&gt;&lt;span style=&quot;font-size: 12pt; font-family: Consolas, sans-serif; color: rgb(0, 0, 0); background-color: transparent; font-weight: 400; font-style: italic; font-variant: normal; text-decoration: none; vertical-align: baseline;&quot;&gt;INDENT&lt;/span&gt;&lt;span style=&quot;font-size: 12pt; font-family: Consolas, sans-serif; color: rgb(0, 0, 0); background-color: transparent; font-weight: 400; font-style: normal; font-variant: normal; text-decoration: none; vertical-align: baseline;&quot;&gt; &amp;lt;sub-statement(s)&amp;gt; &lt;/span&gt;&lt;span style=&quot;font-size: 12pt; font-family: Consolas, sans-serif; color: rgb(0, 0, 0); background-color: transparent; font-weight: 400; font-style: italic; font-variant: normal; text-decoration: none; vertical-align: baseline;&quot;&gt;DEDENT&lt;/span&gt;&lt;/p&gt;&lt;p dir=&quot;ltr&quot; style=&quot;line-height:1.38;margin-left: 36pt;margin-top:0pt;margin-bottom:0pt;&quot;&gt;&lt;span style=&quot;font-size: 12pt; font-family: Consolas, sans-serif; color: rgb(0, 0, 0); background-color: transparent; font-weight: 700; font-style: normal; font-variant: normal; text-decoration: none; vertical-align: baseline;&quot;&gt;&amp;lt;medial&amp;gt; &lt;/span&gt;&lt;span style=&quot;font-size: 12pt; font-family: Consolas, sans-serif; color: rgb(0, 0, 0); background-color: transparent; font-weight: 400; font-style: normal; font-variant: normal; text-decoration: none; vertical-align: baseline;&quot;&gt;:== &lt;/span&gt;&lt;span style=&quot;font-size: 12pt; font-family: Consolas, sans-serif; color: rgb(0, 0, 0); background-color: transparent; font-weight: 400; font-style: italic; font-variant: normal; text-decoration: none; vertical-align: baseline;&quot;&gt;RESERVED_ELSE&lt;/span&gt;&lt;span style=&quot;font-size: 12pt; font-family: Consolas, sans-serif; color: rgb(0, 0, 0); background-color: transparent; font-weight: 400; font-style: normal; font-variant: normal; text-decoration: none; vertical-align: baseline;&quot;&gt; &amp;lt;predicate-cond&amp;gt; [ &lt;/span&gt;&lt;span style=&quot;font-size: 12pt; font-family: Consolas, sans-serif; color: rgb(0, 0, 0); background-color: transparent; font-weight: 400; font-style: italic; font-variant: normal; text-decoration: none; vertical-align: baseline;&quot;&gt;RESERVED_THEN &lt;/span&gt;&lt;span style=&quot;font-size: 12pt; font-family: Consolas, sans-serif; color: rgb(0, 0, 0); background-color: transparent; font-weight: 400; font-style: normal; font-variant: normal; text-decoration: none; vertical-align: baseline;&quot;&gt;] &lt;/span&gt;&lt;span style=&quot;font-size: 12pt; font-family: Consolas, sans-serif; color: rgb(0, 0, 0); background-color: transparent; font-weight: 400; font-style: italic; font-variant: normal; text-decoration: none; vertical-align: baseline;&quot;&gt;SENTENCE_BREAK&lt;/span&gt;&lt;span style=&quot;font-size: 12pt; font-family: Consolas, sans-serif; color: rgb(0, 0, 0); background-color: transparent; font-weight: 400; font-style: normal; font-variant: normal; text-decoration: none; vertical-align: baseline;&quot;&gt; &lt;/span&gt;&lt;span style=&quot;font-size: 12pt; font-family: Consolas, sans-serif; color: rgb(0, 0, 0); background-color: transparent; font-weight: 400; font-style: italic; font-variant: normal; text-decoration: none; vertical-align: baseline;&quot;&gt;INDENT&lt;/span&gt;&lt;span style=&quot;font-size: 12pt; font-family: Consolas, sans-serif; color: rgb(0, 0, 0); background-color: transparent; font-weight: 400; font-style: normal; font-variant: normal; text-decoration: none; vertical-align: baseline;&quot;&gt; &amp;lt;sub-statement(s)&amp;gt; &lt;/span&gt;&lt;span style=&quot;font-size: 12pt; font-family: Consolas, sans-serif; color: rgb(0, 0, 0); background-color: transparent; font-weight: 400; font-style: italic; font-variant: normal; text-decoration: none; vertical-align: baseline;&quot;&gt;DEDENT&lt;/span&gt;&lt;/p&gt;&lt;p dir=&quot;ltr&quot; style=&quot;line-height:1.38;margin-left: 36pt;margin-top:0pt;margin-bottom:0pt;&quot;&gt;&lt;span style=&quot;font-size: 12pt; font-family: Consolas, sans-serif; color: rgb(0, 0, 0); background-color: transparent; font-weight: 700; font-style: normal; font-variant: normal; text-decoration: none; vertical-align: baseline;&quot;&gt;&amp;lt;final&amp;gt; &lt;/span&gt;&lt;span style=&quot;font-size: 12pt; font-family: Consolas, sans-serif; color: rgb(0, 0, 0); background-color: transparent; font-weight: 400; font-style: normal; font-variant: normal; text-decoration: none; vertical-align: baseline;&quot;&gt;:== &lt;/span&gt;&lt;span style=&quot;font-size: 12pt; font-family: Consolas, sans-serif; color: rgb(0, 0, 0); background-color: transparent; font-weight: 400; font-style: italic; font-variant: normal; text-decoration: none; vertical-align: baseline;&quot;&gt;RESERVED_ELSE&lt;/span&gt;&lt;span style=&quot;font-size: 12pt; font-family: Consolas, sans-serif; color: rgb(0, 0, 0); background-color: transparent; font-weight: 400; font-style: normal; font-variant: normal; text-decoration: none; vertical-align: baseline;&quot;&gt; [ &lt;/span&gt;&lt;span style=&quot;font-size: 12pt; font-family: Consolas, sans-serif; color: rgb(0, 0, 0); background-color: transparent; font-weight: 400; font-style: italic; font-variant: normal; text-decoration: none; vertical-align: baseline;&quot;&gt;RESERVED_THEN &lt;/span&gt;&lt;span style=&quot;font-size: 12pt; font-family: Consolas, sans-serif; color: rgb(0, 0, 0); background-color: transparent; font-weight: 400; font-style: normal; font-variant: normal; text-decoration: none; vertical-align: baseline;&quot;&gt;] &lt;/span&gt;&lt;span style=&quot;font-size: 12pt; font-family: Consolas, sans-serif; color: rgb(0, 0, 0); background-color: transparent; font-weight: 400; font-style: italic; font-variant: normal; text-decoration: none; vertical-align: baseline;&quot;&gt;SENTENCE_BREAK&lt;/span&gt;&lt;span style=&quot;font-size: 12pt; font-family: Consolas, sans-serif; color: rgb(0, 0, 0); background-color: transparent; font-weight: 400; font-style: normal; font-variant: normal; text-decoration: none; vertical-align: baseline;&quot;&gt; &lt;/span&gt;&lt;span style=&quot;font-size: 12pt; font-family: Consolas, sans-serif; color: rgb(0, 0, 0); background-color: transparent; font-weight: 400; font-style: italic; font-variant: normal; text-decoration: none; vertical-align: baseline;&quot;&gt;INDENT&lt;/span&gt;&lt;span style=&quot;font-size: 12pt; font-family: Consolas, sans-serif; color: rgb(0, 0, 0); background-color: transparent; font-weight: 400; font-style: normal; font-variant: normal; text-decoration: none; vertical-align: baseline;&quot;&gt; &amp;lt;statement(s)&amp;gt; &lt;/span&gt;&lt;span style=&quot;font-size: 12pt; font-family: Consolas, sans-serif; color: rgb(0, 0, 0); background-color: transparent; font-weight: 400; font-style: italic; font-variant: normal; text-decoration: none; vertical-align: baseline;&quot;&gt;DEDENT&lt;/span&gt;&lt;/p&gt;&lt;p dir=&quot;ltr&quot; style=&quot;line-height:1.38;margin-left: 36pt;margin-top:0pt;margin-bottom:0pt;&quot;&gt;&lt;span style=&quot;font-size: 12pt; font-family: Consolas, sans-serif; color: rgb(0, 0, 0); background-color: transparent; font-weight: 400; font-style: normal; font-variant: normal; text-decoration: none; vertical-align: baseline;&quot;&gt;&amp;lt;predicate-cond&amp;gt; = &lt;/span&gt;&lt;span style=&quot;font-size: 12pt; font-family: Consolas, sans-serif; color: rgb(0, 0, 0); background-color: transparent; font-weight: 400; font-style: italic; font-variant: normal; text-decoration: none; vertical-align: baseline;&quot;&gt;RESERVED_IF&lt;/span&gt;&lt;span style=&quot;font-size: 12pt; font-family: Consolas, sans-serif; color: rgb(0, 0, 0); background-color: transparent; font-weight: 400; font-style: normal; font-variant: normal; text-decoration: none; vertical-align: baseline;&quot;&gt; &amp;lt;expression&amp;gt;&lt;/span&gt;&lt;/p&gt;&lt;/b&gt;&lt;br class=&quot;Apple-interchange-newline&quot;&gt;" style="text;whiteSpace=wrap;html=1;" vertex="1" parent="1">
          <mxGeometry y="10" width="560" height="240" as="geometry" />
        </mxCell>
        <mxCell id="Kcy05sSw5dRX6cnOLowN-2" value="&lt;font style=&quot;font-size: 20px;&quot;&gt;&amp;lt;conditional&amp;gt;&lt;/font&gt;" style="text;html=1;strokeColor=none;fillColor=none;align=center;verticalAlign=middle;whiteSpace=wrap;rounded=0;fontFamily=Lucida Console;" vertex="1" parent="1">
          <mxGeometry x="560" y="300" width="160" height="30" as="geometry" />
        </mxCell>
        <mxCell id="Kcy05sSw5dRX6cnOLowN-3" value="&lt;font style=&quot;font-size: 20px;&quot;&gt;&amp;lt;initial&amp;gt;&lt;/font&gt;" style="text;html=1;strokeColor=none;fillColor=none;align=center;verticalAlign=middle;whiteSpace=wrap;rounded=0;fontFamily=Lucida Console;" vertex="1" parent="1">
          <mxGeometry x="-410" y="476" width="160" height="30" as="geometry" />
        </mxCell>
        <mxCell id="Kcy05sSw5dRX6cnOLowN-5" value="&lt;font style=&quot;font-size: 20px;&quot;&gt;&amp;lt;final&amp;gt;&lt;/font&gt;" style="text;html=1;strokeColor=none;fillColor=none;align=center;verticalAlign=middle;whiteSpace=wrap;rounded=0;fontFamily=Lucida Console;" vertex="1" parent="1">
          <mxGeometry x="1420" y="480" width="160" height="30" as="geometry" />
        </mxCell>
        <mxCell id="Kcy05sSw5dRX6cnOLowN-6" value="&lt;font style=&quot;font-size: 20px;&quot;&gt;RESERVED_ELSE&lt;/font&gt;" style="text;html=1;strokeColor=none;fillColor=none;align=center;verticalAlign=middle;whiteSpace=wrap;rounded=0;fontFamily=Lucida Console;" vertex="1" parent="1">
          <mxGeometry x="1060" y="642" width="160" height="30" as="geometry" />
        </mxCell>
        <mxCell id="Kcy05sSw5dRX6cnOLowN-7" value="&lt;font style=&quot;font-size: 20px;&quot;&gt;SENTENCE_BREAK&lt;/font&gt;" style="text;html=1;strokeColor=none;fillColor=none;align=center;verticalAlign=middle;whiteSpace=wrap;rounded=0;fontFamily=Lucida Console;" vertex="1" parent="1">
          <mxGeometry x="1250" y="642" width="160" height="30" as="geometry" />
        </mxCell>
        <mxCell id="Kcy05sSw5dRX6cnOLowN-8" value="&lt;font style=&quot;font-size: 20px;&quot;&gt;SENTENCE_BREAK&lt;/font&gt;" style="text;html=1;strokeColor=none;fillColor=none;align=center;verticalAlign=middle;whiteSpace=wrap;rounded=0;fontFamily=Lucida Console;" vertex="1" parent="1">
          <mxGeometry x="-580" y="642" width="160" height="30" as="geometry" />
        </mxCell>
        <mxCell id="Kcy05sSw5dRX6cnOLowN-9" value="&lt;font style=&quot;font-size: 20px;&quot;&gt;&amp;lt;statement(s)&amp;gt;&lt;/font&gt;" style="text;html=1;strokeColor=none;fillColor=none;align=center;verticalAlign=middle;whiteSpace=wrap;rounded=0;fontFamily=Lucida Console;" vertex="1" parent="1">
          <mxGeometry x="1580" y="642" width="160" height="30" as="geometry" />
        </mxCell>
        <mxCell id="Kcy05sSw5dRX6cnOLowN-10" value="&lt;font style=&quot;font-size: 20px;&quot;&gt;INDENT&lt;/font&gt;" style="text;html=1;strokeColor=none;fillColor=none;align=center;verticalAlign=middle;whiteSpace=wrap;rounded=0;fontFamily=Lucida Console;" vertex="1" parent="1">
          <mxGeometry x="1420" y="642" width="160" height="30" as="geometry" />
        </mxCell>
        <mxCell id="Kcy05sSw5dRX6cnOLowN-11" value="&lt;font style=&quot;font-size: 20px;&quot;&gt;DEDENT&lt;/font&gt;" style="text;html=1;strokeColor=none;fillColor=none;align=center;verticalAlign=middle;whiteSpace=wrap;rounded=0;fontFamily=Lucida Console;" vertex="1" parent="1">
          <mxGeometry x="1760" y="642" width="160" height="30" as="geometry" />
        </mxCell>
        <mxCell id="Kcy05sSw5dRX6cnOLowN-13" value="&lt;font style=&quot;font-size: 20px;&quot;&gt;&amp;lt;predicate-cond&amp;gt;&lt;/font&gt;" style="text;html=1;strokeColor=none;fillColor=none;align=center;verticalAlign=middle;whiteSpace=wrap;rounded=0;fontFamily=Lucida Console;" vertex="1" parent="1">
          <mxGeometry x="-840" y="642" width="240" height="30" as="geometry" />
        </mxCell>
        <mxCell id="Kcy05sSw5dRX6cnOLowN-14" value="&lt;font style=&quot;font-size: 20px;&quot;&gt;INDENT&lt;/font&gt;" style="text;html=1;strokeColor=none;fillColor=none;align=center;verticalAlign=middle;whiteSpace=wrap;rounded=0;fontFamily=Lucida Console;" vertex="1" parent="1">
          <mxGeometry x="-410" y="642" width="160" height="30" as="geometry" />
        </mxCell>
        <mxCell id="Kcy05sSw5dRX6cnOLowN-15" value="&lt;font style=&quot;font-size: 20px;&quot;&gt;&amp;lt;sub-statement(s)&amp;gt;&lt;/font&gt;" style="text;html=1;strokeColor=none;fillColor=none;align=center;verticalAlign=middle;whiteSpace=wrap;rounded=0;fontFamily=Lucida Console;" vertex="1" parent="1">
          <mxGeometry x="-230" y="642" width="220" height="30" as="geometry" />
        </mxCell>
        <mxCell id="Kcy05sSw5dRX6cnOLowN-16" value="&lt;font style=&quot;font-size: 20px;&quot;&gt;DEDENT&lt;/font&gt;" style="text;html=1;strokeColor=none;fillColor=none;align=center;verticalAlign=middle;whiteSpace=wrap;rounded=0;fontFamily=Lucida Console;" vertex="1" parent="1">
          <mxGeometry x="-20" y="642" width="160" height="30" as="geometry" />
        </mxCell>
        <mxCell id="Kcy05sSw5dRX6cnOLowN-28" value="" style="endArrow=classic;html=1;rounded=0;exitX=0;exitY=0.5;exitDx=0;exitDy=0;entryX=0.5;entryY=0;entryDx=0;entryDy=0;" edge="1" parent="1" source="Kcy05sSw5dRX6cnOLowN-5" target="Kcy05sSw5dRX6cnOLowN-6">
          <mxGeometry width="50" height="50" relative="1" as="geometry">
            <mxPoint x="1110" y="546" as="sourcePoint" />
            <mxPoint x="1160" y="496" as="targetPoint" />
          </mxGeometry>
        </mxCell>
        <mxCell id="Kcy05sSw5dRX6cnOLowN-29" value="" style="endArrow=classic;html=1;rounded=0;exitX=0.25;exitY=1;exitDx=0;exitDy=0;entryX=0.5;entryY=0;entryDx=0;entryDy=0;" edge="1" parent="1" source="Kcy05sSw5dRX6cnOLowN-5" target="Kcy05sSw5dRX6cnOLowN-7">
          <mxGeometry width="50" height="50" relative="1" as="geometry">
            <mxPoint x="1469" y="511" as="sourcePoint" />
            <mxPoint x="1150" y="652" as="targetPoint" />
          </mxGeometry>
        </mxCell>
        <mxCell id="Kcy05sSw5dRX6cnOLowN-30" value="" style="endArrow=classic;html=1;rounded=0;exitX=0.5;exitY=1;exitDx=0;exitDy=0;entryX=0.5;entryY=0;entryDx=0;entryDy=0;" edge="1" parent="1" source="Kcy05sSw5dRX6cnOLowN-5" target="Kcy05sSw5dRX6cnOLowN-10">
          <mxGeometry width="50" height="50" relative="1" as="geometry">
            <mxPoint x="1509" y="526" as="sourcePoint" />
            <mxPoint x="1340" y="652" as="targetPoint" />
          </mxGeometry>
        </mxCell>
        <mxCell id="Kcy05sSw5dRX6cnOLowN-31" value="" style="endArrow=classic;html=1;rounded=0;exitX=0.75;exitY=1;exitDx=0;exitDy=0;entryX=0.5;entryY=0;entryDx=0;entryDy=0;" edge="1" parent="1" source="Kcy05sSw5dRX6cnOLowN-5" target="Kcy05sSw5dRX6cnOLowN-9">
          <mxGeometry width="50" height="50" relative="1" as="geometry">
            <mxPoint x="1549" y="526" as="sourcePoint" />
            <mxPoint x="1549" y="652" as="targetPoint" />
          </mxGeometry>
        </mxCell>
        <mxCell id="Kcy05sSw5dRX6cnOLowN-32" value="" style="endArrow=classic;html=1;rounded=0;exitX=1;exitY=0.5;exitDx=0;exitDy=0;entryX=0.5;entryY=0;entryDx=0;entryDy=0;" edge="1" parent="1" source="Kcy05sSw5dRX6cnOLowN-5" target="Kcy05sSw5dRX6cnOLowN-11">
          <mxGeometry width="50" height="50" relative="1" as="geometry">
            <mxPoint x="1589" y="526" as="sourcePoint" />
            <mxPoint x="1730" y="652" as="targetPoint" />
          </mxGeometry>
        </mxCell>
        <mxCell id="Kcy05sSw5dRX6cnOLowN-43" value="" style="endArrow=classic;html=1;rounded=0;exitX=0;exitY=0.5;exitDx=0;exitDy=0;entryX=0.5;entryY=0;entryDx=0;entryDy=0;" edge="1" parent="1" source="Kcy05sSw5dRX6cnOLowN-3" target="Kcy05sSw5dRX6cnOLowN-13">
          <mxGeometry width="50" height="50" relative="1" as="geometry">
            <mxPoint x="-440" y="487" as="sourcePoint" />
            <mxPoint x="-880" y="638" as="targetPoint" />
          </mxGeometry>
        </mxCell>
        <mxCell id="Kcy05sSw5dRX6cnOLowN-44" value="" style="endArrow=classic;html=1;rounded=0;exitX=0.25;exitY=1;exitDx=0;exitDy=0;entryX=0.5;entryY=0;entryDx=0;entryDy=0;" edge="1" parent="1" source="Kcy05sSw5dRX6cnOLowN-3" target="Kcy05sSw5dRX6cnOLowN-8">
          <mxGeometry width="50" height="50" relative="1" as="geometry">
            <mxPoint x="-430" y="501" as="sourcePoint" />
            <mxPoint x="-710" y="652" as="targetPoint" />
          </mxGeometry>
        </mxCell>
        <mxCell id="Kcy05sSw5dRX6cnOLowN-45" value="" style="endArrow=classic;html=1;rounded=0;exitX=0.5;exitY=1;exitDx=0;exitDy=0;entryX=0.5;entryY=0;entryDx=0;entryDy=0;" edge="1" parent="1" source="Kcy05sSw5dRX6cnOLowN-3" target="Kcy05sSw5dRX6cnOLowN-14">
          <mxGeometry width="50" height="50" relative="1" as="geometry">
            <mxPoint x="-390" y="516" as="sourcePoint" />
            <mxPoint x="-490" y="652" as="targetPoint" />
          </mxGeometry>
        </mxCell>
        <mxCell id="Kcy05sSw5dRX6cnOLowN-47" value="" style="endArrow=classic;html=1;rounded=0;exitX=0.75;exitY=1;exitDx=0;exitDy=0;entryX=0.565;entryY=-0.014;entryDx=0;entryDy=0;entryPerimeter=0;" edge="1" parent="1" source="Kcy05sSw5dRX6cnOLowN-3" target="Kcy05sSw5dRX6cnOLowN-15">
          <mxGeometry width="50" height="50" relative="1" as="geometry">
            <mxPoint x="-320" y="516" as="sourcePoint" />
            <mxPoint x="-320" y="652" as="targetPoint" />
          </mxGeometry>
        </mxCell>
        <mxCell id="Kcy05sSw5dRX6cnOLowN-48" value="" style="endArrow=classic;html=1;rounded=0;exitX=1;exitY=0.5;exitDx=0;exitDy=0;entryX=0.429;entryY=-0.052;entryDx=0;entryDy=0;entryPerimeter=0;" edge="1" parent="1" source="Kcy05sSw5dRX6cnOLowN-3" target="Kcy05sSw5dRX6cnOLowN-16">
          <mxGeometry width="50" height="50" relative="1" as="geometry">
            <mxPoint x="-280" y="516" as="sourcePoint" />
            <mxPoint x="-96" y="652" as="targetPoint" />
          </mxGeometry>
        </mxCell>
        <mxCell id="Kcy05sSw5dRX6cnOLowN-49" value="" style="endArrow=classic;html=1;rounded=0;exitX=0;exitY=0.5;exitDx=0;exitDy=0;entryX=0.5;entryY=0;entryDx=0;entryDy=0;" edge="1" parent="1" source="Kcy05sSw5dRX6cnOLowN-2" target="Kcy05sSw5dRX6cnOLowN-3">
          <mxGeometry width="50" height="50" relative="1" as="geometry">
            <mxPoint x="-380" y="439" as="sourcePoint" />
            <mxPoint x="-81" y="588" as="targetPoint" />
          </mxGeometry>
        </mxCell>
        <mxCell id="Kcy05sSw5dRX6cnOLowN-51" value="" style="endArrow=classic;html=1;rounded=0;exitX=1;exitY=0.75;exitDx=0;exitDy=0;entryX=0.5;entryY=0;entryDx=0;entryDy=0;" edge="1" parent="1" source="Kcy05sSw5dRX6cnOLowN-2" target="Kcy05sSw5dRX6cnOLowN-5">
          <mxGeometry width="50" height="50" relative="1" as="geometry">
            <mxPoint x="650" y="340" as="sourcePoint" />
            <mxPoint x="650" y="424" as="targetPoint" />
          </mxGeometry>
        </mxCell>
        <mxCell id="Kcy05sSw5dRX6cnOLowN-52" value="" style="endArrow=classic;html=1;rounded=0;exitX=0.75;exitY=1;exitDx=0;exitDy=0;" edge="1" parent="1" source="Kcy05sSw5dRX6cnOLowN-13" target="Kcy05sSw5dRX6cnOLowN-53">
          <mxGeometry width="50" height="50" relative="1" as="geometry">
            <mxPoint x="-630" y="720" as="sourcePoint" />
            <mxPoint x="-720" y="790" as="targetPoint" />
          </mxGeometry>
        </mxCell>
        <mxCell id="Kcy05sSw5dRX6cnOLowN-53" value="&lt;font style=&quot;font-size: 20px;&quot;&gt;&amp;lt;expression&amp;gt;&lt;/font&gt;" style="text;html=1;strokeColor=none;fillColor=none;align=center;verticalAlign=middle;whiteSpace=wrap;rounded=0;fontFamily=Lucida Console;" vertex="1" parent="1">
          <mxGeometry x="-740" y="722" width="200" height="34" as="geometry" />
        </mxCell>
        <mxCell id="Kcy05sSw5dRX6cnOLowN-54" value="&lt;font style=&quot;font-size: 20px;&quot;&gt;RESERVED_IF&lt;/font&gt;" style="text;html=1;strokeColor=none;fillColor=none;align=center;verticalAlign=middle;whiteSpace=wrap;rounded=0;fontFamily=Lucida Console;" vertex="1" parent="1">
          <mxGeometry x="-880" y="700" width="150" height="30" as="geometry" />
        </mxCell>
        <mxCell id="Kcy05sSw5dRX6cnOLowN-55" value="" style="endArrow=classic;html=1;rounded=0;exitX=0.25;exitY=1;exitDx=0;exitDy=0;entryX=0.5;entryY=0;entryDx=0;entryDy=0;" edge="1" parent="1" source="Kcy05sSw5dRX6cnOLowN-13" target="Kcy05sSw5dRX6cnOLowN-54">
          <mxGeometry width="50" height="50" relative="1" as="geometry">
            <mxPoint x="-710" y="682" as="sourcePoint" />
            <mxPoint x="-590" y="796" as="targetPoint" />
          </mxGeometry>
        </mxCell>
        <mxCell id="Kcy05sSw5dRX6cnOLowN-62" value="" style="endArrow=classic;html=1;rounded=0;exitX=0.5;exitY=1;exitDx=0;exitDy=0;entryX=0.5;entryY=0;entryDx=0;entryDy=0;" edge="1" parent="1" source="Kcy05sSw5dRX6cnOLowN-9" target="Kcy05sSw5dRX6cnOLowN-63">
          <mxGeometry width="50" height="50" relative="1" as="geometry">
            <mxPoint x="1620" y="735" as="sourcePoint" />
            <mxPoint x="1660" y="760" as="targetPoint" />
          </mxGeometry>
        </mxCell>
        <mxCell id="Kcy05sSw5dRX6cnOLowN-63" value="&lt;font style=&quot;font-size: 20px;&quot;&gt;&amp;lt;assign-statement&amp;gt;&lt;/font&gt;" style="text;html=1;strokeColor=none;fillColor=none;align=center;verticalAlign=middle;whiteSpace=wrap;rounded=0;fontFamily=Lucida Console;" vertex="1" parent="1">
          <mxGeometry x="1520" y="726" width="280" height="30" as="geometry" />
        </mxCell>
        <mxCell id="Kcy05sSw5dRX6cnOLowN-71" value="&lt;font style=&quot;font-size: 20px;&quot;&gt;&amp;lt;variables&amp;gt;&lt;/font&gt;" style="text;html=1;strokeColor=none;fillColor=none;align=center;verticalAlign=middle;whiteSpace=wrap;rounded=0;fontFamily=Lucida Console;" vertex="1" parent="1">
          <mxGeometry x="1580" y="827" width="160" height="30" as="geometry" />
        </mxCell>
        <mxCell id="Kcy05sSw5dRX6cnOLowN-73" value="&lt;font style=&quot;font-size: 20px;&quot;&gt;RESERVED_SET&lt;/font&gt;" style="text;html=1;strokeColor=none;fillColor=none;align=center;verticalAlign=middle;whiteSpace=wrap;rounded=0;fontFamily=Lucida Console;" vertex="1" parent="1">
          <mxGeometry x="1410" y="827" width="160" height="30" as="geometry" />
        </mxCell>
        <mxCell id="Kcy05sSw5dRX6cnOLowN-75" value="" style="endArrow=classic;html=1;rounded=0;exitX=0.25;exitY=1;exitDx=0;exitDy=0;entryX=0.5;entryY=0;entryDx=0;entryDy=0;" edge="1" parent="1" source="Kcy05sSw5dRX6cnOLowN-63" target="Kcy05sSw5dRX6cnOLowN-73">
          <mxGeometry width="50" height="50" relative="1" as="geometry">
            <mxPoint x="1710" y="796" as="sourcePoint" />
            <mxPoint x="1720" y="870" as="targetPoint" />
          </mxGeometry>
        </mxCell>
        <mxCell id="Kcy05sSw5dRX6cnOLowN-81" value="" style="endArrow=classic;html=1;rounded=0;exitX=0.75;exitY=1;exitDx=0;exitDy=0;entryX=0.5;entryY=0;entryDx=0;entryDy=0;" edge="1" parent="1" source="Kcy05sSw5dRX6cnOLowN-53" target="Kcy05sSw5dRX6cnOLowN-83">
          <mxGeometry width="50" height="50" relative="1" as="geometry">
            <mxPoint x="-640" y="850" as="sourcePoint" />
            <mxPoint x="-640" y="890" as="targetPoint" />
          </mxGeometry>
        </mxCell>
        <mxCell id="Kcy05sSw5dRX6cnOLowN-82" value="" style="endArrow=classic;html=1;rounded=0;exitX=0.5;exitY=1;exitDx=0;exitDy=0;entryX=0.5;entryY=0;entryDx=0;entryDy=0;" edge="1" parent="1" source="Kcy05sSw5dRX6cnOLowN-83" target="Kcy05sSw5dRX6cnOLowN-84">
          <mxGeometry width="50" height="50" relative="1" as="geometry">
            <mxPoint x="-480.77" y="924" as="sourcePoint" />
            <mxPoint x="-480.77" y="998" as="targetPoint" />
          </mxGeometry>
        </mxCell>
        <mxCell id="Kcy05sSw5dRX6cnOLowN-83" value="&lt;font style=&quot;font-size: 20px;&quot;&gt;&amp;lt;comparand&amp;gt;&lt;/font&gt;" style="text;html=1;strokeColor=none;fillColor=none;align=center;verticalAlign=middle;whiteSpace=wrap;rounded=0;fontFamily=Lucida Console;" vertex="1" parent="1">
          <mxGeometry x="-580" y="800" width="200" height="34" as="geometry" />
        </mxCell>
        <mxCell id="Kcy05sSw5dRX6cnOLowN-84" value="&lt;font style=&quot;font-size: 20px;&quot;&gt;&amp;lt;term&amp;gt;&lt;/font&gt;" style="text;html=1;strokeColor=none;fillColor=none;align=center;verticalAlign=middle;whiteSpace=wrap;rounded=0;fontFamily=Lucida Console;" vertex="1" parent="1">
          <mxGeometry x="-580" y="880" width="200" height="34" as="geometry" />
        </mxCell>
        <mxCell id="Kcy05sSw5dRX6cnOLowN-85" value="&lt;font style=&quot;font-size: 20px;&quot;&gt;&amp;lt;factor&amp;gt;&lt;/font&gt;" style="text;html=1;strokeColor=none;fillColor=none;align=center;verticalAlign=middle;whiteSpace=wrap;rounded=0;fontFamily=Lucida Console;" vertex="1" parent="1">
          <mxGeometry x="-580" y="960" width="200" height="34" as="geometry" />
        </mxCell>
        <mxCell id="Kcy05sSw5dRX6cnOLowN-86" value="&lt;font style=&quot;font-size: 20px;&quot;&gt;&amp;lt;operand&amp;gt;&lt;/font&gt;" style="text;html=1;strokeColor=none;fillColor=none;align=center;verticalAlign=middle;whiteSpace=wrap;rounded=0;fontFamily=Lucida Console;" vertex="1" parent="1">
          <mxGeometry x="-580" y="1030" width="200" height="34" as="geometry" />
        </mxCell>
        <mxCell id="Kcy05sSw5dRX6cnOLowN-87" value="&lt;font style=&quot;font-size: 20px;&quot;&gt;INTEGER&lt;/font&gt;" style="text;html=1;strokeColor=none;fillColor=none;align=center;verticalAlign=middle;whiteSpace=wrap;rounded=0;fontFamily=Lucida Console;" vertex="1" parent="1">
          <mxGeometry x="-580" y="1100" width="200" height="34" as="geometry" />
        </mxCell>
        <mxCell id="Kcy05sSw5dRX6cnOLowN-90" value="" style="endArrow=classic;html=1;rounded=0;entryX=0.5;entryY=0;entryDx=0;entryDy=0;exitX=0.5;exitY=1;exitDx=0;exitDy=0;" edge="1" parent="1" source="Kcy05sSw5dRX6cnOLowN-84" target="Kcy05sSw5dRX6cnOLowN-85">
          <mxGeometry width="50" height="50" relative="1" as="geometry">
            <mxPoint x="-370" y="890" as="sourcePoint" />
            <mxPoint x="-370" y="1076" as="targetPoint" />
          </mxGeometry>
        </mxCell>
        <mxCell id="Kcy05sSw5dRX6cnOLowN-91" value="" style="endArrow=classic;html=1;rounded=0;exitX=0.5;exitY=1;exitDx=0;exitDy=0;entryX=0.5;entryY=0;entryDx=0;entryDy=0;" edge="1" parent="1" source="Kcy05sSw5dRX6cnOLowN-85" target="Kcy05sSw5dRX6cnOLowN-86">
          <mxGeometry width="50" height="50" relative="1" as="geometry">
            <mxPoint x="-470" y="1044" as="sourcePoint" />
            <mxPoint x="-470" y="1110" as="targetPoint" />
          </mxGeometry>
        </mxCell>
        <mxCell id="Kcy05sSw5dRX6cnOLowN-92" value="" style="endArrow=classic;html=1;rounded=0;exitX=0.5;exitY=1;exitDx=0;exitDy=0;" edge="1" parent="1" source="Kcy05sSw5dRX6cnOLowN-86" target="Kcy05sSw5dRX6cnOLowN-87">
          <mxGeometry width="50" height="50" relative="1" as="geometry">
            <mxPoint x="-470" y="1144" as="sourcePoint" />
            <mxPoint x="-470" y="1200" as="targetPoint" />
          </mxGeometry>
        </mxCell>
        <mxCell id="Kcy05sSw5dRX6cnOLowN-104" value="" style="endArrow=classic;html=1;rounded=0;exitX=0.5;exitY=1;exitDx=0;exitDy=0;entryX=0.5;entryY=0;entryDx=0;entryDy=0;" edge="1" parent="1" source="Kcy05sSw5dRX6cnOLowN-105" target="Kcy05sSw5dRX6cnOLowN-106">
          <mxGeometry width="50" height="50" relative="1" as="geometry">
            <mxPoint x="-815.77" y="924" as="sourcePoint" />
            <mxPoint x="-815.77" y="998" as="targetPoint" />
          </mxGeometry>
        </mxCell>
        <mxCell id="Kcy05sSw5dRX6cnOLowN-105" value="&lt;font style=&quot;font-size: 20px;&quot;&gt;&amp;lt;comparand&amp;gt;&lt;/font&gt;" style="text;html=1;strokeColor=none;fillColor=none;align=center;verticalAlign=middle;whiteSpace=wrap;rounded=0;fontFamily=Lucida Console;" vertex="1" parent="1">
          <mxGeometry x="-915" y="800" width="200" height="34" as="geometry" />
        </mxCell>
        <mxCell id="Kcy05sSw5dRX6cnOLowN-106" value="&lt;font style=&quot;font-size: 20px;&quot;&gt;&amp;lt;term&amp;gt;&lt;/font&gt;" style="text;html=1;strokeColor=none;fillColor=none;align=center;verticalAlign=middle;whiteSpace=wrap;rounded=0;fontFamily=Lucida Console;" vertex="1" parent="1">
          <mxGeometry x="-915" y="880" width="200" height="34" as="geometry" />
        </mxCell>
        <mxCell id="Kcy05sSw5dRX6cnOLowN-107" value="&lt;font style=&quot;font-size: 20px;&quot;&gt;&amp;lt;factor&amp;gt;&lt;/font&gt;" style="text;html=1;strokeColor=none;fillColor=none;align=center;verticalAlign=middle;whiteSpace=wrap;rounded=0;fontFamily=Lucida Console;" vertex="1" parent="1">
          <mxGeometry x="-915" y="960" width="200" height="34" as="geometry" />
        </mxCell>
        <mxCell id="Kcy05sSw5dRX6cnOLowN-108" value="&lt;font style=&quot;font-size: 20px;&quot;&gt;&amp;lt;operand&amp;gt;&lt;/font&gt;" style="text;html=1;strokeColor=none;fillColor=none;align=center;verticalAlign=middle;whiteSpace=wrap;rounded=0;fontFamily=Lucida Console;" vertex="1" parent="1">
          <mxGeometry x="-915" y="1030" width="200" height="34" as="geometry" />
        </mxCell>
        <mxCell id="Kcy05sSw5dRX6cnOLowN-109" value="&lt;font style=&quot;font-size: 20px;&quot;&gt;IDENTIFIER&lt;/font&gt;" style="text;html=1;strokeColor=none;fillColor=none;align=center;verticalAlign=middle;whiteSpace=wrap;rounded=0;fontFamily=Lucida Console;" vertex="1" parent="1">
          <mxGeometry x="-915" y="1100" width="200" height="34" as="geometry" />
        </mxCell>
        <mxCell id="Kcy05sSw5dRX6cnOLowN-110" value="" style="endArrow=classic;html=1;rounded=0;entryX=0.5;entryY=0;entryDx=0;entryDy=0;exitX=0.5;exitY=1;exitDx=0;exitDy=0;" edge="1" parent="1" source="Kcy05sSw5dRX6cnOLowN-106" target="Kcy05sSw5dRX6cnOLowN-107">
          <mxGeometry width="50" height="50" relative="1" as="geometry">
            <mxPoint x="-705" y="890" as="sourcePoint" />
            <mxPoint x="-705" y="1076" as="targetPoint" />
          </mxGeometry>
        </mxCell>
        <mxCell id="Kcy05sSw5dRX6cnOLowN-111" value="" style="endArrow=classic;html=1;rounded=0;exitX=0.5;exitY=1;exitDx=0;exitDy=0;entryX=0.5;entryY=0;entryDx=0;entryDy=0;" edge="1" parent="1" source="Kcy05sSw5dRX6cnOLowN-107" target="Kcy05sSw5dRX6cnOLowN-108">
          <mxGeometry width="50" height="50" relative="1" as="geometry">
            <mxPoint x="-805" y="1044" as="sourcePoint" />
            <mxPoint x="-805" y="1110" as="targetPoint" />
          </mxGeometry>
        </mxCell>
        <mxCell id="Kcy05sSw5dRX6cnOLowN-112" value="" style="endArrow=classic;html=1;rounded=0;exitX=0.5;exitY=1;exitDx=0;exitDy=0;" edge="1" parent="1" source="Kcy05sSw5dRX6cnOLowN-108" target="Kcy05sSw5dRX6cnOLowN-109">
          <mxGeometry width="50" height="50" relative="1" as="geometry">
            <mxPoint x="-805" y="1144" as="sourcePoint" />
            <mxPoint x="-805" y="1200" as="targetPoint" />
          </mxGeometry>
        </mxCell>
        <mxCell id="Kcy05sSw5dRX6cnOLowN-113" value="" style="endArrow=classic;html=1;rounded=0;exitX=0.25;exitY=1;exitDx=0;exitDy=0;entryX=0.5;entryY=0;entryDx=0;entryDy=0;" edge="1" parent="1" source="Kcy05sSw5dRX6cnOLowN-53" target="Kcy05sSw5dRX6cnOLowN-105">
          <mxGeometry width="50" height="50" relative="1" as="geometry">
            <mxPoint x="-580" y="766" as="sourcePoint" />
            <mxPoint x="-474" y="820" as="targetPoint" />
          </mxGeometry>
        </mxCell>
        <mxCell id="Kcy05sSw5dRX6cnOLowN-114" value="&lt;font style=&quot;font-size: 20px;&quot;&gt;&amp;lt;comparison&amp;gt;&lt;/font&gt;" style="text;html=1;strokeColor=none;fillColor=none;align=center;verticalAlign=middle;whiteSpace=wrap;rounded=0;fontFamily=Lucida Console;" vertex="1" parent="1">
          <mxGeometry x="-740" y="820" width="200" height="34" as="geometry" />
        </mxCell>
        <mxCell id="Kcy05sSw5dRX6cnOLowN-115" value="" style="endArrow=classic;html=1;rounded=0;exitX=0.5;exitY=1;exitDx=0;exitDy=0;" edge="1" parent="1" source="Kcy05sSw5dRX6cnOLowN-114">
          <mxGeometry width="50" height="50" relative="1" as="geometry">
            <mxPoint x="-600" y="890" as="sourcePoint" />
            <mxPoint x="-640" y="900" as="targetPoint" />
          </mxGeometry>
        </mxCell>
        <mxCell id="Kcy05sSw5dRX6cnOLowN-116" value="&lt;font style=&quot;font-size: 20px;&quot;&gt;LESS_THAN&lt;/font&gt;" style="text;html=1;strokeColor=none;fillColor=none;align=center;verticalAlign=middle;whiteSpace=wrap;rounded=0;fontFamily=Lucida Console;" vertex="1" parent="1">
          <mxGeometry x="-740" y="900" width="200" height="34" as="geometry" />
        </mxCell>
        <mxCell id="Kcy05sSw5dRX6cnOLowN-117" value="" style="endArrow=classic;html=1;rounded=0;exitX=0.5;exitY=1;exitDx=0;exitDy=0;entryX=0.5;entryY=0;entryDx=0;entryDy=0;" edge="1" parent="1" source="Kcy05sSw5dRX6cnOLowN-53" target="Kcy05sSw5dRX6cnOLowN-114">
          <mxGeometry width="50" height="50" relative="1" as="geometry">
            <mxPoint x="-630" y="864" as="sourcePoint" />
            <mxPoint x="-630" y="910" as="targetPoint" />
          </mxGeometry>
        </mxCell>
        <mxCell id="Kcy05sSw5dRX6cnOLowN-142" value="&lt;b style=&quot;font-weight:normal;&quot; id=&quot;docs-internal-guid-1a080f8b-7fff-ebfb-1d68-e19104dc31f6&quot;&gt;&lt;p dir=&quot;ltr&quot; style=&quot;line-height:1.38;margin-left: 36pt;margin-top:0pt;margin-bottom:0pt;&quot;&gt;&lt;span style=&quot;font-size: 12pt; font-family: Consolas, sans-serif; color: rgb(0, 0, 0); background-color: transparent; font-weight: 700; font-style: normal; font-variant: normal; text-decoration: none; vertical-align: baseline;&quot;&gt;&amp;lt;sub-statement(s)&amp;gt;&lt;/span&gt;&lt;span style=&quot;font-size: 12pt; font-family: Consolas, sans-serif; color: rgb(0, 0, 0); background-color: transparent; font-weight: 400; font-style: normal; font-variant: normal; text-decoration: none; vertical-align: baseline;&quot;&gt; :== ( &amp;lt;declaration&amp;gt; | &amp;lt;assign-statement&amp;gt; | &amp;lt;input&amp;gt; | &amp;lt;output&amp;gt; | &amp;lt;conditional&amp;gt; | &amp;lt;iteration&amp;gt; ) { &amp;lt;declaration&amp;gt; | &amp;lt;assign-statement&amp;gt; | &amp;lt;input&amp;gt; | &amp;lt;output&amp;gt; | &amp;lt;conditional&amp;gt; | &amp;lt;iteration&amp;gt; }&lt;/span&gt;&lt;/p&gt;&lt;br&gt;&lt;/b&gt;" style="text;whiteSpace=wrap;html=1;" vertex="1" parent="1">
          <mxGeometry x="-740" y="1330" width="560" height="130" as="geometry" />
        </mxCell>
        <mxCell id="Kcy05sSw5dRX6cnOLowN-144" value="&lt;b style=&quot;font-weight:normal;&quot; id=&quot;docs-internal-guid-b729ae1e-7fff-cd62-e953-3efa21935383&quot;&gt;&lt;span style=&quot;font-size: 12pt; font-family: Consolas, sans-serif; color: rgb(0, 0, 0); background-color: transparent; font-weight: 700; font-style: normal; font-variant: normal; text-decoration: none; vertical-align: baseline;&quot;&gt;&amp;lt;assign-statement&amp;gt;&lt;/span&gt;&lt;span style=&quot;font-size: 12pt; font-family: Consolas, sans-serif; color: rgb(0, 0, 0); background-color: transparent; font-weight: 400; font-style: normal; font-variant: normal; text-decoration: none; vertical-align: baseline;&quot;&gt; :== &lt;/span&gt;&lt;span style=&quot;font-size: 12pt; font-family: Consolas, sans-serif; color: rgb(0, 0, 0); background-color: transparent; font-weight: 400; font-style: italic; font-variant: normal; text-decoration: none; vertical-align: baseline;&quot;&gt;RESERVED_SET&lt;/span&gt;&lt;span style=&quot;font-size: 12pt; font-family: Consolas, sans-serif; color: rgb(0, 0, 0); background-color: transparent; font-weight: 400; font-style: normal; font-variant: normal; text-decoration: none; vertical-align: baseline;&quot;&gt; &amp;lt;variable(s)&amp;gt; &lt;/span&gt;&lt;span style=&quot;font-size: 12pt; font-family: Consolas, sans-serif; color: rgb(0, 0, 0); background-color: transparent; font-weight: 400; font-style: italic; font-variant: normal; text-decoration: none; vertical-align: baseline;&quot;&gt;ASSIGNMENT&lt;/span&gt;&lt;span style=&quot;font-size: 12pt; font-family: Consolas, sans-serif; color: rgb(0, 0, 0); background-color: transparent; font-weight: 400; font-style: normal; font-variant: normal; text-decoration: none; vertical-align: baseline;&quot;&gt; &amp;lt;expression&amp;gt; &lt;/span&gt;&lt;span style=&quot;font-size: 12pt; font-family: Consolas, sans-serif; color: rgb(0, 0, 0); background-color: transparent; font-weight: 400; font-style: italic; font-variant: normal; text-decoration: none; vertical-align: baseline;&quot;&gt;SENTENCE_BREAK&lt;/span&gt;&lt;/b&gt;" style="text;whiteSpace=wrap;html=1;" vertex="1" parent="1">
          <mxGeometry x="1400" y="1004" width="560" height="60" as="geometry" />
        </mxCell>
        <mxCell id="Kcy05sSw5dRX6cnOLowN-145" value="" style="endArrow=classic;html=1;rounded=0;exitX=0.5;exitY=1;exitDx=0;exitDy=0;entryX=0.5;entryY=0;entryDx=0;entryDy=0;" edge="1" parent="1" source="Kcy05sSw5dRX6cnOLowN-63" target="Kcy05sSw5dRX6cnOLowN-71">
          <mxGeometry width="50" height="50" relative="1" as="geometry">
            <mxPoint x="1600" y="766" as="sourcePoint" />
            <mxPoint x="1530" y="837" as="targetPoint" />
          </mxGeometry>
        </mxCell>
        <mxCell id="Kcy05sSw5dRX6cnOLowN-146" value="&lt;font style=&quot;font-size: 20px;&quot;&gt;SENTENCE_BREAK&lt;/font&gt;" style="text;html=1;strokeColor=none;fillColor=none;align=center;verticalAlign=middle;whiteSpace=wrap;rounded=0;fontFamily=Lucida Console;" vertex="1" parent="1">
          <mxGeometry x="1750" y="827" width="160" height="30" as="geometry" />
        </mxCell>
        <mxCell id="Kcy05sSw5dRX6cnOLowN-147" value="" style="endArrow=classic;html=1;rounded=0;exitX=0.75;exitY=1;exitDx=0;exitDy=0;entryX=0.5;entryY=0;entryDx=0;entryDy=0;" edge="1" parent="1" source="Kcy05sSw5dRX6cnOLowN-63" target="Kcy05sSw5dRX6cnOLowN-146">
          <mxGeometry width="50" height="50" relative="1" as="geometry">
            <mxPoint x="1600" y="766" as="sourcePoint" />
            <mxPoint x="1500" y="837" as="targetPoint" />
          </mxGeometry>
        </mxCell>
      </root>
    </mxGraphModel>
  </diagram>
</mxfile>
